# xmcd
#
# Track frame offsets:
#	182
#	52485
#	79897
#	123285
#	136115
#	190847
#	203130
#	216085
#
# Disc length: 3013 seconds
#
# Revision: 0
# Processed by: cddbd v1.4PL0 Copyright (c) Steve Scherf et al.
# Submitted via: dBpowerAMP V4.0
#
DISCID=750bc308
DTITLE=Marvin Gaye - The Legendary CD_2
DYEAR=1900
DGENRE=Blues
TTITLE0=Medley
TTITLE1=Joy
TTITLE2=Distant Lover
TTITLE3=Ilerlude - African Dance
TTITLE4=(Sexual) Healing
TTITLE5=Pride and joy
TTITLE6=Stubborn kind of fellow
TTITLE7=Highlights - Interviews
EXTD=
EXTT0=
EXTT1=
EXTT2=
EXTT3=
EXTT4=
EXTT5=
EXTT6=
EXTT7=
PLAYORDER=
